<svg xmlns="http://www.w3.org/2000/svg" viewBox="0 0 512 512">
  <defs>
    <linearGradient id="gradient" x1="0%" y1="0%" x2="100%" y2="100%">
      <stop offset="0%" style="stop-color:#6c5ce7"/>
      <stop offset="100%" style="stop-color:#fd79a8"/>
    </linearGradient>
  </defs>
  <rect width="512" height="512" rx="102" fill="url(#gradient)"/>
  <path fill="#ffffff" d="M147.2 96C147.2 71.28 167.28 51.2 192 51.2H211.2C228.03 51.2 241.6 64.77 241.6 81.6V460.8C241.6 477.63 228.03 491.2 211.2 491.2H185.6C161.76 491.2 141.68 473.28 136 448C134.24 448 132.56 448 130.8 448C99.04 448 71.2 420.16 71.2 388.4C71.2 372.8 75.2 358.08 82.4 345.6C67.68 335.68 57.6 316.32 57.6 296C57.6 268.96 71.68 245.12 92.16 233.92C86.48 222.24 83.2 209.12 83.2 196.8C83.2 159.68 111.68 129.6 147.2 129.6V96zM364.8 96V129.6C400.32 129.6 428.8 159.68 428.8 196.8C428.8 209.2 425.52 222.4 419.84 233.92C440.4 245.12 454.4 268.8 454.4 296C454.4 316.32 444.32 335.68 429.6 345.6C436.8 358.08 440.8 372.8 440.8 388.4C440.8 420.16 412.96 448 381.2 448C379.44 448 377.76 448 376 448C370.32 473.28 350.24 491.2 326.4 491.2H300.8C283.97 491.2 270.4 477.63 270.4 460.8V81.6C270.4 64.77 283.97 51.2 300.8 51.2H320C344.72 51.2 364.8 71.28 364.8 96z" transform="translate(0 -16.8)"/>
</svg>
