<svg xmlns="http://www.w3.org/2000/svg" viewBox="0 0 192 192">
  <defs>
    <linearGradient id="gradient" x1="0%" y1="0%" x2="100%" y2="100%">
      <stop offset="0%" style="stop-color:#6c5ce7"/>
      <stop offset="100%" style="stop-color:#fd79a8"/>
    </linearGradient>
  </defs>
  <rect width="192" height="192" rx="38" fill="url(#gradient)"/>
  <path fill="#ffffff" d="M55.2 36C55.2 26.73 62.73 19.2 72 19.2H79.2C85.51 19.2 90.6 24.29 90.6 30.6V172.2C90.6 178.51 85.51 183.6 79.2 183.6H69.6C60.66 183.6 53.13 176.88 51 168C50.59 168 50.19 168 49.8 168C37.14 168 26.7 157.56 26.7 144.9C26.7 139.4 28.2 134.22 30.9 129.9C25.38 125.42 21.6 118.66 21.6 111C21.6 100.83 26.88 91.86 34.56 87.47C32.43 83.37 31.2 78.67 31.2 73.8C31.2 59.94 41.94 48.6 55.2 48.6V36zM136.8 36V48.6C150.06 48.6 160.8 59.94 160.8 73.8C160.8 78.7 159.57 83.4 157.44 87.47C165.15 91.86 170.4 100.8 170.4 111C170.4 118.66 166.62 125.42 161.1 129.9C163.8 134.22 165.3 139.4 165.3 144.9C165.3 157.56 154.86 168 142.2 168C141.81 168 141.41 168 141 168C138.87 176.88 131.34 183.6 122.4 183.6H112.8C106.49 183.6 101.4 178.51 101.4 172.2V30.6C101.4 24.29 106.49 19.2 112.8 19.2H120C129.27 19.2 136.8 26.73 136.8 36z" transform="translate(0 -6.3)"/>
</svg>
